<svg xmlns="http://www.w3.org/2000/svg" version="1.1" xmlns:xlink="http://www.w3.org/1999/xlink" xmlns:svgjs="http://svgjs.com/svgjs" width="44" height="44"><svg xmlns="http://www.w3.org/2000/svg" width="44" height="44" fill="none" stroke="currentColor" stroke-linecap="round" stroke-linejoin="round" stroke-width="1.5" class="icon icon-tabler icon-tabler-camera-selfie" viewBox="0 0 24 24"><path stroke="none" d="M0 0h24v24H0z"></path><path d="M5 7h1a2 2 0 0 0 2-2 1 1 0 0 1 1-1h6a1 1 0 0 1 1 1 2 2 0 0 0 2 2h1a2 2 0 0 1 2 2v9a2 2 0 0 1-2 2H5a2 2 0 0 1-2-2V9a2 2 0 0 1 2-2"></path><path d="M9.5 15a3.5 3.5 0 0 0 5 0M15 11h.01M9 11h.01"></path></svg><style>@media (prefers-color-scheme: light) { :root { filter: none; } }
@media (prefers-color-scheme: dark) { :root { filter: none; } }
</style></svg>